<mxfile host="app.diagrams.net" agent="Mozilla/5.0 (Windows NT 10.0; Win64; x64) AppleWebKit/537.36 (KHTML, like Gecko) Chrome/141.0.0.0 Safari/537.36" version="28.2.7">
  <diagram name="Page-1" id="cJeqshkxZzhb3qAhUdIf">
    <mxGraphModel dx="1185" dy="597" grid="1" gridSize="10" guides="1" tooltips="1" connect="1" arrows="1" fold="1" page="1" pageScale="1" pageWidth="827" pageHeight="1169" math="0" shadow="0">
      <root>
        <mxCell id="0" />
        <mxCell id="1" parent="0" />
        <mxCell id="tKqIJnWV8_I8lTW-8SZ_-1" value="" style="edgeStyle=none;curved=1;rounded=0;orthogonalLoop=1;jettySize=auto;html=1;fontSize=12;startSize=8;endSize=8;" parent="1" source="tKqIJnWV8_I8lTW-8SZ_-2" target="tKqIJnWV8_I8lTW-8SZ_-4" edge="1">
          <mxGeometry relative="1" as="geometry" />
        </mxCell>
        <mxCell id="tKqIJnWV8_I8lTW-8SZ_-2" value="create_plane(numOfRows, numOfSeats)" style="ellipse;whiteSpace=wrap;html=1;" parent="1" vertex="1">
          <mxGeometry x="320" y="140" width="200" height="60" as="geometry" />
        </mxCell>
        <mxCell id="tKqIJnWV8_I8lTW-8SZ_-3" style="edgeStyle=none;curved=1;rounded=0;orthogonalLoop=1;jettySize=auto;html=1;entryX=0.5;entryY=0;entryDx=0;entryDy=0;fontSize=12;startSize=8;endSize=8;" parent="1" source="tKqIJnWV8_I8lTW-8SZ_-4" target="tKqIJnWV8_I8lTW-8SZ_-6" edge="1">
          <mxGeometry relative="1" as="geometry" />
        </mxCell>
        <mxCell id="tKqIJnWV8_I8lTW-8SZ_-4" value="Create a list called &lt;i&gt;rows&lt;/i&gt; containing &lt;i&gt;numOfRows&lt;/i&gt; elements" style="whiteSpace=wrap;html=1;" parent="1" vertex="1">
          <mxGeometry x="350" y="240" width="140" height="80" as="geometry" />
        </mxCell>
        <mxCell id="tKqIJnWV8_I8lTW-8SZ_-5" value="" style="edgeStyle=orthogonalEdgeStyle;rounded=0;orthogonalLoop=1;jettySize=auto;html=1;" parent="1" source="tKqIJnWV8_I8lTW-8SZ_-6" target="tKqIJnWV8_I8lTW-8SZ_-8" edge="1">
          <mxGeometry relative="1" as="geometry" />
        </mxCell>
        <mxCell id="tKqIJnWV8_I8lTW-8SZ_-6" value="Assign the value 0 to the new variables &lt;i&gt;rowIndex&lt;/i&gt; and &lt;i&gt;seatIndex&lt;/i&gt;" style="whiteSpace=wrap;html=1;" parent="1" vertex="1">
          <mxGeometry x="330" y="360" width="180" height="80" as="geometry" />
        </mxCell>
        <mxCell id="tKqIJnWV8_I8lTW-8SZ_-7" value="" style="edgeStyle=orthogonalEdgeStyle;rounded=0;orthogonalLoop=1;jettySize=auto;html=1;" parent="1" source="tKqIJnWV8_I8lTW-8SZ_-8" target="tKqIJnWV8_I8lTW-8SZ_-10" edge="1">
          <mxGeometry relative="1" as="geometry" />
        </mxCell>
        <mxCell id="tKqIJnWV8_I8lTW-8SZ_-8" value="In the &lt;i&gt;rows&lt;/i&gt; list, create a new list in the element with an index of &lt;i&gt;rowIndex&lt;/i&gt;, with a size of &lt;i&gt;numOfSeats&lt;/i&gt; elements" style="whiteSpace=wrap;html=1;" parent="1" vertex="1">
          <mxGeometry x="310" y="480" width="220" height="80" as="geometry" />
        </mxCell>
        <mxCell id="tKqIJnWV8_I8lTW-8SZ_-9" value="" style="edgeStyle=orthogonalEdgeStyle;rounded=0;orthogonalLoop=1;jettySize=auto;html=1;" parent="1" source="tKqIJnWV8_I8lTW-8SZ_-10" target="tKqIJnWV8_I8lTW-8SZ_-12" edge="1">
          <mxGeometry relative="1" as="geometry" />
        </mxCell>
        <mxCell id="tKqIJnWV8_I8lTW-8SZ_-10" value="In this sub list, insert the string &quot;empty&quot; into the element with an index of &lt;i&gt;seatIndex&lt;/i&gt;" style="whiteSpace=wrap;html=1;" parent="1" vertex="1">
          <mxGeometry x="320" y="600" width="200" height="80" as="geometry" />
        </mxCell>
        <mxCell id="tKqIJnWV8_I8lTW-8SZ_-11" value="" style="edgeStyle=orthogonalEdgeStyle;rounded=0;orthogonalLoop=1;jettySize=auto;html=1;" parent="1" source="tKqIJnWV8_I8lTW-8SZ_-12" target="tKqIJnWV8_I8lTW-8SZ_-19" edge="1">
          <mxGeometry relative="1" as="geometry" />
        </mxCell>
        <mxCell id="tKqIJnWV8_I8lTW-8SZ_-12" value="Is &lt;i&gt;seatIndex&lt;/i&gt; = &lt;i&gt;numOfSeats&lt;/i&gt; - 1" style="rhombus;whiteSpace=wrap;html=1;" parent="1" vertex="1">
          <mxGeometry x="310" y="720" width="220" height="80" as="geometry" />
        </mxCell>
        <mxCell id="tKqIJnWV8_I8lTW-8SZ_-13" style="edgeStyle=orthogonalEdgeStyle;rounded=0;orthogonalLoop=1;jettySize=auto;html=1;entryX=0;entryY=0.5;entryDx=0;entryDy=0;" parent="1" source="tKqIJnWV8_I8lTW-8SZ_-14" target="tKqIJnWV8_I8lTW-8SZ_-10" edge="1">
          <mxGeometry relative="1" as="geometry" />
        </mxCell>
        <mxCell id="tKqIJnWV8_I8lTW-8SZ_-14" value="Increment &lt;i&gt;seatIndex&lt;/i&gt; by 1" style="whiteSpace=wrap;html=1;" parent="1" vertex="1">
          <mxGeometry x="180" y="610" width="100" height="60" as="geometry" />
        </mxCell>
        <mxCell id="tKqIJnWV8_I8lTW-8SZ_-15" value="No" style="text;html=1;whiteSpace=wrap;strokeColor=none;fillColor=none;align=center;verticalAlign=middle;rounded=0;" parent="1" vertex="1">
          <mxGeometry x="250" y="730" width="60" height="30" as="geometry" />
        </mxCell>
        <mxCell id="tKqIJnWV8_I8lTW-8SZ_-16" value="" style="edgeStyle=orthogonalEdgeStyle;rounded=0;orthogonalLoop=1;jettySize=auto;html=1;entryX=0.5;entryY=1;entryDx=0;entryDy=0;" parent="1" source="tKqIJnWV8_I8lTW-8SZ_-12" target="tKqIJnWV8_I8lTW-8SZ_-14" edge="1">
          <mxGeometry relative="1" as="geometry">
            <mxPoint x="320" y="760" as="sourcePoint" />
            <mxPoint x="120" y="700" as="targetPoint" />
          </mxGeometry>
        </mxCell>
        <mxCell id="tKqIJnWV8_I8lTW-8SZ_-17" value="" style="edgeStyle=orthogonalEdgeStyle;rounded=0;orthogonalLoop=1;jettySize=auto;html=1;" parent="1" source="tKqIJnWV8_I8lTW-8SZ_-19" target="tKqIJnWV8_I8lTW-8SZ_-21" edge="1">
          <mxGeometry relative="1" as="geometry" />
        </mxCell>
        <mxCell id="tKqIJnWV8_I8lTW-8SZ_-18" style="edgeStyle=orthogonalEdgeStyle;rounded=0;orthogonalLoop=1;jettySize=auto;html=1;entryX=0.5;entryY=0;entryDx=0;entryDy=0;" parent="1" source="tKqIJnWV8_I8lTW-8SZ_-19" target="tKqIJnWV8_I8lTW-8SZ_-24" edge="1">
          <mxGeometry relative="1" as="geometry" />
        </mxCell>
        <mxCell id="tKqIJnWV8_I8lTW-8SZ_-19" value="Is &lt;i&gt;rowIndex&lt;/i&gt; = &lt;i&gt;numOfRows&lt;/i&gt; - 1" style="rhombus;whiteSpace=wrap;html=1;" parent="1" vertex="1">
          <mxGeometry x="310" y="840" width="220" height="80" as="geometry" />
        </mxCell>
        <mxCell id="tKqIJnWV8_I8lTW-8SZ_-20" style="edgeStyle=orthogonalEdgeStyle;rounded=0;orthogonalLoop=1;jettySize=auto;html=1;entryX=1;entryY=0.5;entryDx=0;entryDy=0;" parent="1" source="tKqIJnWV8_I8lTW-8SZ_-21" target="tKqIJnWV8_I8lTW-8SZ_-8" edge="1">
          <mxGeometry relative="1" as="geometry">
            <Array as="points">
              <mxPoint x="640" y="520" />
            </Array>
          </mxGeometry>
        </mxCell>
        <mxCell id="tKqIJnWV8_I8lTW-8SZ_-21" value="Increment &lt;i&gt;rowIndex&lt;/i&gt; by 1 and set &lt;i&gt;seatIndex&lt;/i&gt; = 0" style="whiteSpace=wrap;html=1;" parent="1" vertex="1">
          <mxGeometry x="580" y="850" width="120" height="60" as="geometry" />
        </mxCell>
        <mxCell id="tKqIJnWV8_I8lTW-8SZ_-22" value="No" style="text;html=1;whiteSpace=wrap;strokeColor=none;fillColor=none;align=center;verticalAlign=middle;rounded=0;" parent="1" vertex="1">
          <mxGeometry x="520" y="850" width="60" height="30" as="geometry" />
        </mxCell>
        <mxCell id="tKqIJnWV8_I8lTW-8SZ_-23" value="Yes" style="text;html=1;whiteSpace=wrap;strokeColor=none;fillColor=none;align=center;verticalAlign=middle;rounded=0;" parent="1" vertex="1">
          <mxGeometry x="420" y="800" width="60" height="30" as="geometry" />
        </mxCell>
        <mxCell id="tKqIJnWV8_I8lTW-8SZ_-24" value="Return &lt;i&gt;rows&lt;/i&gt;" style="ellipse;whiteSpace=wrap;html=1;" parent="1" vertex="1">
          <mxGeometry x="320" y="960" width="200" height="60" as="geometry" />
        </mxCell>
        <mxCell id="tKqIJnWV8_I8lTW-8SZ_-25" value="Yes" style="text;html=1;whiteSpace=wrap;strokeColor=none;fillColor=none;align=center;verticalAlign=middle;rounded=0;" parent="1" vertex="1">
          <mxGeometry x="420" y="920" width="60" height="30" as="geometry" />
        </mxCell>
      </root>
    </mxGraphModel>
  </diagram>
</mxfile>
